{
  "accessors": [
    {
      "bufferView": 2,
      "componentType": 5126,
      "count": 65532,
      "max": [
        79.81114196777344,
        34.38738250732422,
        33.62040710449219
      ],
      "min": [
        -31.01608657836914,
        -44.790428161621094,
        -71.12139892578125
      ],
      "type": "VEC3"
    },
    {
      "bufferView": 2,
      "byteOffset": 786384,
      "componentType": 5126,
      "count": 65532,
      "max": [
        0.9999499320983887,
        0.9999958276748657,
        0.999541163444519
      ],
      "min": [
        -0.9999833106994629,
        -0.9999657869338989,
        -0.9998806715011597
      ],
      "type": "VEC3"
    },
    {
      "bufferView": 1,
      "componentType": 5126,
      "count": 65532,
      "max": [
        0.9721630215644836,
        0.9822880029678345
      ],
      "min": [
        0.017712000757455826,
        0.008812000043690205
      ],
      "type": "VEC2"
    },
    {
      "bufferView": 0,
      "componentType": 5125,
      "count": 363336,
      "type": "SCALAR"
    },
    {
      "bufferView": 2,
      "byteOffset": 1572768,
      "componentType": 5126,
      "count": 65532,
      "max": [
        78.199951171875,
        33.338722229003906,
        33.62040710449219
      ],
      "min": [
        -31.001651763916016,
        -50.484642028808594,
        -71.14183044433594
      ],
      "type": "VEC3"
    },
    {
      "bufferView": 2,
      "byteOffset": 2359152,
      "componentType": 5126,
      "count": 65532,
      "max": [
        0.9999973773956299,
        0.9999327659606934,
        0.9999788999557495
      ],
      "min": [
        -0.9999990463256836,
        -0.9999922513961792,
        -0.9999598264694214
      ],
      "type": "VEC3"
    },
    {
      "bufferView": 1,
      "byteOffset": 524256,
      "componentType": 5126,
      "count": 65532,
      "max": [
        0.791176974773407,
        0.9822880029678345
      ],
      "min": [
        0.017712000757455826,
        0.2114800065755844
      ],
      "type": "VEC2"
    },
    {
      "bufferView": 0,
      "byteOffset": 1453344,
      "componentType": 5125,
      "count": 370254,
      "type": "SCALAR"
    },
    {
      "bufferView": 2,
      "byteOffset": 3145536,
      "componentType": 5126,
      "count": 4454,
      "max": [
        -9.305471420288086,
        10.432247161865234,
        14.659988403320313
      ],
      "min": [
        -28.129358291625977,
        -50.45222854614258,
        -62.33234405517578
      ],
      "type": "VEC3"
    },
    {
      "bufferView": 2,
      "byteOffset": 3198984,
      "componentType": 5126,
      "count": 4454,
      "max": [
        0.9999395608901978,
        0.9997845888137817,
        0.8070698380470276
      ],
      "min": [
        -0.7844263315200806,
        -0.9960992336273193,
        -0.9916530847549438
      ],
      "type": "VEC3"
    },
    {
      "bufferView": 1,
      "byteOffset": 1048512,
      "componentType": 5126,
      "count": 4454,
      "max": [
        0.7835543155670166,
        0.6633428931236267
      ],
      "min": [
        0.06287099421024323,
        0.24827399849891663
      ],
      "type": "VEC2"
    },
    {
      "bufferView": 0,
      "byteOffset": 2934360,
      "componentType": 5125,
      "count": 16410,
      "type": "SCALAR"
    }
  ],
  "asset": {
    "extras": {
      "author": "osuecampus (https://sketchfab.com/osuecampus)",
      "license": "CC-BY-4.0 (http://creativecommons.org/licenses/by/4.0/)",
      "source": "https://sketchfab.com/3d-models/mandible-aaf20cd592384a1599490d887d1cde3e",
      "title": "Mandible"
    },
    "generator": "Sketchfab-12.67.0",
    "version": "2.0"
  },
  "bufferViews": [
    {
      "buffer": 0,
      "byteLength": 3000000,
      "name": "floatBufferViews",
      "target": 34963
    },
    {
      "buffer": 0,
      "byteLength": 1084144,
      "byteOffset": 3000000,
      "byteStride": 8,
      "name": "floatBufferViews",
      "target": 34962
    },
    {
      "buffer": 0,
      "byteLength": 3252432,
      "byteOffset": 4084144,
      "byteStride": 12,
      "name": "floatBufferViews",
      "target": 34962
    }
  ],
  "buffers": [
    {
      "byteLength": 7336576,
      "uri": "scene.bin"
    }
  ],
  "materials": [
    {
      "doubleSided": true,
      "name": "Bone",
      "pbrMetallicRoughness": {
        "baseColorFactor": [
          0.641818,
          0.681912,
          0.543678,
          1.0
        ],
        "metallicFactor": 0.0,
        "roughnessFactor": 0.5
      }
    }
  ],
  "meshes": [
    {
      "name": "Object_0",
      "primitives": [
        {
          "attributes": {
            "NORMAL": 1,
            "POSITION": 0,
            "TEXCOORD_0": 2
          },
          "indices": 3,
          "material": 0,
          "mode": 4
        }
      ]
    },
    {
      "name": "Object_1",
      "primitives": [
        {
          "attributes": {
            "NORMAL": 5,
            "POSITION": 4,
            "TEXCOORD_0": 6
          },
          "indices": 7,
          "material": 0,
          "mode": 4
        }
      ]
    },
    {
      "name": "Object_2",
      "primitives": [
        {
          "attributes": {
            "NORMAL": 9,
            "POSITION": 8,
            "TEXCOORD_0": 10
          },
          "indices": 11,
          "material": 0,
          "mode": 4
        }
      ]
    }
  ],
  "nodes": [
    {
      "children": [
        1
      ],
      "matrix": [
        1.0,
        0.0,
        0.0,
        0.0,
        0.0,
        2.220446049250313e-16,
        -1.0,
        0.0,
        0.0,
        1.0,
        2.220446049250313e-16,
        0.0,
        0.0,
        0.0,
        0.0,
        1.0
      ],
      "name": "Sketchfab_model"
    },
    {
      "children": [
        2
      ],
      "name": "root"
    },
    {
      "children": [
        3
      ],
      "matrix": [
        1.0,
        0.0,
        0.0,
        0.0,
        0.0,
        2.220446049250313e-16,
        1.0,
        0.0,
        0.0,
        -1.0,
        2.220446049250313e-16,
        0.0,
        0.0,
        0.0,
        0.0,
        1.0
      ],
      "name": "GLTF_SceneRootNode"
    },
    {
      "children": [
        4,
        5,
        6
      ],
      "matrix": [
        1.0,
        0.0,
        0.0,
        0.0,
        0.0,
        -1.685873969314855e-07,
        0.9999999999999858,
        0.0,
        0.0,
        -0.9999999999999858,
        -1.685873969314855e-07,
        0.0,
        15.728659629821777,
        15.662233352661133,
        161.06283569335938,
        1.0
      ],
      "name": "Mandible_0"
    },
    {
      "mesh": 0,
      "name": "Object_4"
    },
    {
      "mesh": 1,
      "name": "Object_5"
    },
    {
      "mesh": 2,
      "name": "Object_6"
    }
  ],
  "scene": 0,
  "scenes": [
    {
      "name": "Sketchfab_Scene",
      "nodes": [
        0
      ]
    }
  ]
}
