{
  "accessors": [
    {
      "bufferView": 1,
      "componentType": 5126,
      "count": 13816,
      "max": [
        70.2757797241211,
        -22.91836929321289,
        229.2273712158203
      ],
      "min": [
        54.206687927246094,
        -35.24660873413086,
        216.9651641845703
      ],
      "type": "VEC3"
    },
    {
      "bufferView": 1,
      "byteOffset": 165792,
      "componentType": 5126,
      "count": 13816,
      "max": [
        0.999989926815033,
        0.9999721050262451,
        0.9995055198669434
      ],
      "min": [
        -0.9999863505363464,
        -0.9998798370361328,
        -0.9999375343322754
      ],
      "type": "VEC3"
    },
    {
      "bufferView": 0,
      "componentType": 5125,
      "count": 81024,
      "type": "SCALAR"
    },
    {
      "bufferView": 1,
      "byteOffset": 331584,
      "componentType": 5126,
      "count": 65532,
      "max": [
        72.14506530761719,
        -7.940753936767578,
        246.80442810058594
      ],
      "min": [
        51.94171905517578,
        -36.15224075317383,
        222.1931610107422
      ],
      "type": "VEC3"
    },
    {
      "bufferView": 1,
      "byteOffset": 1117968,
      "componentType": 5126,
      "count": 65532,
      "max": [
        0.9999959468841553,
        0.9999344348907471,
        0.999967098236084
      ],
      "min": [
        -0.9999877214431763,
        -0.9999420046806335,
        -0.9999769926071167
      ],
      "type": "VEC3"
    },
    {
      "bufferView": 0,
      "byteOffset": 324096,
      "componentType": 5125,
      "count": 349230,
      "type": "SCALAR"
    },
    {
      "bufferView": 1,
      "byteOffset": 1904352,
      "componentType": 5126,
      "count": 25512,
      "max": [
        72.12437438964844,
        -7.9414801597595215,
        246.7968292236328
      ],
      "min": [
        51.99236297607422,
        -36.15224075317383,
        222.30899047851563
      ],
      "type": "VEC3"
    },
    {
      "bufferView": 1,
      "byteOffset": 2210496,
      "componentType": 5126,
      "count": 25512,
      "max": [
        0.9999875426292419,
        0.9999482035636902,
        0.999967098236084
      ],
      "min": [
        -0.9999599456787109,
        -0.9998432397842407,
        -0.9999397993087769
      ],
      "type": "VEC3"
    },
    {
      "bufferView": 0,
      "byteOffset": 1721016,
      "componentType": 5125,
      "count": 80154,
      "type": "SCALAR"
    }
  ],
  "asset": {
    "extras": {
      "author": "hangar79 (https://sketchfab.com/hangar79)",
      "license": "CC-BY-4.0 (http://creativecommons.org/licenses/by/4.0/)",
      "source": "https://sketchfab.com/3d-models/european-male-skull-scan-c4df62212c0e48919ade6a3e5f0ecca7",
      "title": "European Male Skull Scan"
    },
    "generator": "Sketchfab-12.64.0",
    "version": "2.0"
  },
  "bufferViews": [
    {
      "buffer": 0,
      "byteLength": 2041632,
      "name": "floatBufferViews",
      "target": 34963
    },
    {
      "buffer": 0,
      "byteLength": 2516640,
      "byteOffset": 2041632,
      "byteStride": 12,
      "name": "floatBufferViews",
      "target": 34962
    }
  ],
  "buffers": [
    {
      "byteLength": 4558272,
      "uri": "scene.bin"
    }
  ],
  "materials": [
    {
      "doubleSided": true,
      "name": "material_0",
      "pbrMetallicRoughness": {
        "metallicFactor": 0.0,
        "roughnessFactor": 0.0
      }
    }
  ],
  "meshes": [
    {
      "name": "Object_0",
      "primitives": [
        {
          "attributes": {
            "NORMAL": 1,
            "POSITION": 0
          },
          "indices": 2,
          "material": 0,
          "mode": 4
        }
      ]
    },
    {
      "name": "Object_1",
      "primitives": [
        {
          "attributes": {
            "NORMAL": 4,
            "POSITION": 3
          },
          "indices": 5,
          "material": 0,
          "mode": 4
        }
      ]
    },
    {
      "name": "Object_2",
      "primitives": [
        {
          "attributes": {
            "NORMAL": 7,
            "POSITION": 6
          },
          "indices": 8,
          "material": 0,
          "mode": 4
        }
      ]
    }
  ],
  "nodes": [
    {
      "children": [
        1
      ],
      "matrix": [
        1.0,
        0.0,
        0.0,
        0.0,
        0.0,
        2.220446049250313e-16,
        -1.0,
        0.0,
        0.0,
        1.0,
        2.220446049250313e-16,
        0.0,
        0.0,
        0.0,
        0.0,
        1.0
      ],
      "name": "Sketchfab_model"
    },
    {
      "children": [
        2,
        3,
        4
      ],
      "name": "Male_Skull OBJ.OBJ.cleaner.materialmerger.gles"
    },
    {
      "mesh": 0,
      "name": "Object_2"
    },
    {
      "mesh": 1,
      "name": "Object_3"
    },
    {
      "mesh": 2,
      "name": "Object_4"
    }
  ],
  "scene": 0,
  "scenes": [
    {
      "name": "Sketchfab_Scene",
      "nodes": [
        0
      ]
    }
  ]
}
